PathFileType	4	(X/Y/Z)	S01_0018_Gait_markers.trc
DataRate	CameraRate	NumFrames	NumMarkers	Units	OrigDataRate	OrigDataStartFrame	OrigNumFrames
250.000000	250.000000	4	54	mm	250.000000	90	363
Frame#	Time	HEAD_ANT			R_HEAD			L_HEAD			C7			R_BACK			L_BACK			STERNUM			R_ACROMION			R_HUM_PROX			R_HUM_ANT			R_HUM_POST			R_ELBOW_LAT			R_ELBOW_MED			R_FOREARM			R_WIRST_LAT			R_WRITS_MED			R_HAND			L_ACROMION			L_HUM_PROX			L_HUM_ANT			L_HUM_POST			L_ELBOW_LAT			L_ELBOW_MED			L_FOREARM			L_WRIST_LAT			L_WIRST_MED			L_HAND			R_ILIAC			SACRUM			L_ILIAC			R_GTROCH			R_THIGH__1			R_THIGH_2			R_THIGH_3			R_THIGH_4			R_SHANK_1			R_SHANK_2			R_SHANK_3			R_SHANK_4			R_HEEL			R_FOOT_LAT			R_FOOT_MED			L_GTROCH			L_THIGH_1			L_THIGH_2			L_THIGH_3			L_THIGH_4			L_SHANK_1			L_SHANK_2			L_SHANK_3			L_SHANK_4			L_HEEL			L_FOOT_LAT			L_FOOT_MED			
		X1	Y1	Z1	X2	Y2	Z2	X3	Y3	Z3	X4	Y4	Z4	X5	Y5	Z5	X6	Y6	Z6	X7	Y7	Z7	X8	Y8	Z8	X9	Y9	Z9	X10	Y10	Z10	X11	Y11	Z11	X12	Y12	Z12	X13	Y13	Z13	X14	Y14	Z14	X15	Y15	Z15	X16	Y16	Z16	X17	Y17	Z17	X18	Y18	Z18	X19	Y19	Z19	X20	Y20	Z20	X21	Y21	Z21	X22	Y22	Z22	X23	Y23	Z23	X24	Y24	Z24	X25	Y25	Z25	X26	Y26	Z26	X27	Y27	Z27	X28	Y28	Z28	X29	Y29	Z29	X30	Y30	Z30	X31	Y31	Z31	X32	Y32	Z32	X33	Y33	Z33	X34	Y34	Z34	X35	Y35	Z35	X36	Y36	Z36	X37	Y37	Z37	X38	Y38	Z38	X39	Y39	Z39	X40	Y40	Z40	X41	Y41	Z41	X42	Y42	Z42	X43	Y43	Z43	X44	Y44	Z44	X45	Y45	Z45	X46	Y46	Z46	X47	Y47	Z47	X48	Y48	Z48	X49	Y49	Z49	X50	Y50	Z50	X51	Y51	Z51	X52	Y52	Z52	X53	Y53	Z53	X54	Y54	Z54	

91	0.36	588.5361328125	1737.139038085938	-286.5888977050777	531.5256958007812	1680.202026367188	-211.9539642333981	529.1890869140625	1693.372192382812	-359.4062805175777	396.7615661621094	1517.110229492188	-295.5572814941403	326.5046691894531	1317.170776367188	-236.9234313964841	323.9284973144531	1324.819213867188	-372.2667541503903	574.5623779296875	1354.338134765625	-301.4574279785153	473.0617980957031	1462.207641601562	-126.3835906982419	432.2959594726562	1299.453735351562	-43.84309387207002	491.2954406738281	1212.32568359375	-43.60260772705051	369.9201354980469	1217.063110351562	-34.884525299072	413.3522033691406	1109.829345703125	-33.2722663879392	388.6077880859375	1109.87353515625	-113.4891586303709	516.16748046875	926.8410034179688	-40.02146911621073	556.55419921875	864.003662109375	-83.71298217773418	488.3594360351562	838.6387329101562	-47.80221557617169	559.1102905273438	774.2001342773438	-31.72542762756331	474.2923583984375	1476.6669921875	-465.5841674804684	453.1024475097656	1312.061401367188	-563.5610961914059	514.8704223632812	1231.36669921875	-564.4473876953123	393.9990539550781	1235.380737304688	-591.4418334960935	452.5459594726562	1130.781860351563	-601.4207763671873	399.4051818847656	1123.518920898438	-544.5380249023435	558.1415405273438	953.9984130859376	-587.0584716796873	581.029296875	889.2388916015626	-535.1356201171873	544.8713989257812	873.9492187500001	-603.760070800781	615.1390991210938	809.7341308593751	-581.9298706054685	471.4573059082031	1072.128295898438	-137.7005920410154	342.00244140625	1041.041625976562	-306.1450195312498	456.2004699707031	1057.609375	-482.6202697753904	431.3357849121094	923.348876953125	-122.444984436035	508.7306518554688	644.9984741210938	-154.3388671874999	562.2979736328125	668.8600463867188	-153.9595642089842	578.2196044921875	570.384521484375	-194.4075775146483	515.2943725585938	566.6640625	-178.5648956298827	504.6398010253906	341.9744567871094	-179.9765319824218	555.82763671875	319.2774963378907	-202.7880249023437	544.7774658203125	235.9989776611329	-222.4059753417968	483.9938049316406	244.9726562500001	-203.1654510498046	418.3136596679688	43.34415435791022	-289.1804504394531	581.9208984375	19.4174194335938	-205.3342437744141	636.3931884765625	29.16845512390143	-311.2312622070312	425.4948120117188	942.4271240234376	-485.0684509277341	553.51904296875	662.7855834960939	-493.9774780273436	496.3918762207031	678.0220336914064	-501.197296142578	495.4342651367188	572.6319580078126	-482.5665893554686	559.2371826171875	581.3525390625001	-481.8236389160155	383.3934326171875	368.9924926757814	-477.7744140624999	332.6889343261719	401.2286071777345	-473.6265258789061	264.3903198242188	348.0864562988282	-455.0425109863281	308.2548828125	301.7066040039064	-456.6461791992187	107.5595855712891	270.7171020507813	-376.6426391601562	154.657958984375	110.2003555297853	-463.3398742675781	195.2252502441406	81.33578491210946	-374.86767578125	
92	0.364	594.0116577148438	1738.135498046875	-286.9433593749996	537.1327514648438	1681.329833984375	-212.2702636718746	534.4330444335938	1694.19482421875	-359.7228393554684	402.1918029785156	1518.123168945312	-295.4055480957028	331.9414672851562	1318.230712890625	-236.4147338867185	329.2593688964844	1325.56982421875	-371.8056945800778	579.8988647460938	1355.43212890625	-301.7177734374997	478.6018981933594	1463.36279296875	-126.4468994140622	438.2669677734375	1300.50732421875	-43.76930236816377	497.2007751464844	1213.218383789062	-43.86477661132785	375.918701171875	1217.890625	-34.42042541503879	420.1984558105469	1110.723510742188	-33.14677047729467	394.5400085449219	1110.835327148438	-113.5620574951169	523.5765380859375	928.539794921875	-40.60932540893534	564.29638671875	865.9622802734375	-84.25544738769511	496.3888244628906	840.1329345703125	-48.54501342773419	567.400146484375	776.0592651367188	-32.55450057983381	479.3214416503906	1477.688598632812	-465.6827697753903	457.7468872070312	1312.97802734375	-563.7166137695309	519.1920776367188	1232.2265625	-564.6844482421873	398.3359985351562	1236.449584960938	-591.2263183593748	456.640380859375	1131.835327148438	-601.368957519531	403.6680297851562	1124.595825195313	-544.3244628906248	561.8117065429688	954.9746093750001	-587.7406005859373	584.7138061523438	889.8596191406251	-535.695861816406	548.6881713867188	874.9095458984376	-604.2626953124998	618.6422729492188	810.3289184570314	-582.735168457031	476.6714782714844	1073.312622070312	-138.035202026367	347.1871643066406	1042.044677734375	-305.6781921386716	461.7785949707031	1059.404541015625	-482.2709655761716	436.4755249023438	924.1580810546875	-122.4282989501951	511.137939453125	645.4118041992188	-154.3338470458983	565.250732421875	669.19970703125	-153.2972412109374	580.1110229492188	570.1201171875	-194.1651611328124	516.4996948242188	566.534423828125	-178.5233459472655	505.2691955566406	342.2435302734376	-180.1004333496093	556.4849243164062	319.3616333007813	-202.7940216064453	545.226806640625	236.0330047607422	-222.4218139648437	484.3941345214844	245.2282714843751	-203.2531280517578	418.3910827636719	43.55543899536139	-289.3064575195312	581.9585571289062	19.40765571594243	-205.3695678710938	636.4553833007812	29.20342636108405	-311.2419738769531	431.1166076660156	943.7575073242189	-484.8419494628904	561.8690185546875	664.9756469726564	-493.3089599609373	504.8251342773438	679.4974975585939	-501.4619750976561	504.8197021484375	574.3811035156251	-483.0159301757811	568.587890625	583.4691772460939	-482.0614013671874	394.3511047363281	369.9190979003907	-477.9460144042968	343.304931640625	401.2777709960939	-473.6000671386718	275.3933410644531	348.2712707519532	-455.1371154785156	319.8617248535156	302.0792236328126	-456.8935546874999	118.9972763061523	268.7188415527344	-376.8087768554687	169.3059844970703	109.1528472900392	-463.9501647949219	210.1421051025391	80.59123229980477	-375.4688110351562	
93	0.368	599.54541015625	1739.041259765625	-287.4077453613277	542.585693359375	1682.21728515625	-212.6057739257809	539.725830078125	1695.07861328125	-360.0097656249996	407.403564453125	1519.079956054688	-295.575286865234	337.3818054199219	1319.253540039062	-236.062805175781	334.6155700683594	1326.412231445312	-371.4286499023435	585.159423828125	1356.396728515625	-302.6215209960935	484.2292175292969	1464.537231445312	-126.410362243652	444.0744018554688	1301.27294921875	-43.73012161254854	503.3207397460938	1214.289794921875	-44.11999511718723	382.0155029296875	1218.814575195312	-34.32743453979465	426.0613403320312	1111.764404296875	-33.23471450805639	400.7744445800781	1111.869506835938	-113.4975814819334	530.9300537109375	930.1766967773438	-41.19647216796854	572.080078125	867.9429321289062	-85.34937286376933	504.2993774414062	841.5603637695312	-49.30868148803692	575.883544921875	778.119140625	-33.52574539184553	484.1630249023438	1478.733276367188	-465.7021484374997	462.1123352050781	1313.823852539063	-563.7462158203122	523.4193115234375	1233.324584960938	-566.5122070312498	402.4224548339844	1237.114624023438	-590.6696777343748	461.1348266601562	1132.6455078125	-601.3414916992185	408.1104125976562	1125.602783203125	-544.0778198242185	565.725830078125	955.5612792968751	-587.8306884765623	588.5591430664062	891.0592041015626	-536.419250488281	552.2308349609375	875.8461914062501	-604.7301025390623	622.0341796875	810.9502563476564	-583.499572753906	481.96875	1074.414672851562	-138.1255187988279	352.5425720214844	1042.949829101562	-305.3186950683591	467.1321716308594	1061.088623046875	-481.9364013671873	441.5061340332031	924.895751953125	-122.5656890869139	513.4799194335938	645.7843627929688	-154.5786132812499	567.6470336914062	668.7111206054688	-153.5823669433592	581.8610229492188	569.6682739257812	-193.8439178466796	518.2132568359375	566.9136962890625	-178.5967864990233	505.7212829589844	342.4898376464844	-180.2174377441405	556.9989013671875	319.4149475097657	-202.7375793457031	545.5491333007812	236.0035705566407	-222.4613952636718	484.6578674316406	245.5765380859376	-203.4508361816406	418.4678039550781	43.78068542480475	-289.4462585449219	581.9554443359375	19.44320106506352	-205.3783111572266	636.48876953125	29.10409545898444	-311.1378784179688	436.7430114746094	945.0937500000001	-484.6595153808591	570.6369018554688	666.9628295898439	-493.9172363281248	513.3178100585938	681.1436157226564	-501.8043518066405	514.0335083007812	575.7731323242189	-483.2013854980468	577.7655639648438	585.3437500000001	-481.8495483398436	405.4007568359375	371.0046691894532	-477.9946594238281	354.0610961914062	401.7529907226564	-473.3450927734374	286.676025390625	347.9786071777345	-455.0577697753906	331.4307861328125	302.1575927734376	-457.0762329101562	130.6450805664062	266.1261596679688	-376.9974365234374	184.3002471923828	107.9417572021485	-464.5682678222656	225.5035858154297	79.6875534057618	-376.2114562988281	
94	0.372	604.9551391601562	1739.74853515625	-287.8835144042965	548.1389770507812	1683.16162109375	-212.885345458984	545.0458374023438	1695.972534179688	-360.2569580078121	412.72607421875	1519.919311523438	-295.5484008789059	342.7590942382812	1320.257080078125	-235.6828460693357	339.8917541503906	1327.100830078125	-371.1322021484372	590.4794311523438	1357.428588867188	-302.577453613281	489.8336791992188	1465.533569335938	-126.619232177734	449.9211730957031	1302.349609375	-43.52519607543916	509.4230651855469	1215.442260742188	-44.44687271118137	388.0345764160156	1219.855834960938	-34.19109344482395	431.8723754882812	1112.923095703125	-33.16085815429663	407.1301574707031	1113.014526367188	-113.7903594970701	538.389404296875	931.8628540039062	-41.87479019165018	579.8124389648438	869.9559326171875	-86.15594482421855	512.2281494140625	843.0772705078125	-50.08638763427716	584.3386840820312	780.0777587890625	-34.3107833862303	489.0977478027344	1479.627563476562	-465.8703002929684	466.5310668945312	1314.796508789063	-563.8070678710934	527.970458984375	1234.047973632813	-566.8092041015623	407.3034057617188	1238.177856445313	-590.6278076171873	464.9218139648438	1133.622680664063	-601.442687988281	412.3347473144531	1126.6796875	-544.0217285156248	569.5029907226562	956.4373779296876	-588.3268432617185	591.9756469726562	891.1300048828126	-536.6251220703123	555.9691772460938	876.6713256835939	-605.458801269531	625.6000366210938	811.7143554687501	-584.189025878906	487.5706176757812	1075.532592773438	-137.7513122558591	357.6827087402344	1044.060546875	-305.0592041015623	472.4655456542969	1062.705200195312	-481.5274963378904	446.4288330078125	925.5255126953125	-122.588912963867	515.8026123046875	646.2619018554688	-154.5198669433592	570.1010131835938	668.3607177734375	-153.7628631591795	583.7299194335938	569.4423217773438	-193.6427001953124	519.5947875976562	567.0380859375	-179.0841217041014	506.0074157714844	342.7419128417969	-180.3559112548827	557.3678588867188	319.4890136718751	-202.630386352539	545.7291870117188	236.0883941650391	-222.3774261474609	484.7832641601562	245.8176879882813	-203.5870513916015	418.5485229492188	43.92982101440436	-289.6101989746094	581.9238891601562	19.43517684936528	-205.41064453125	636.5843505859375	29.1156196594239	-311.1300354003906	442.1099548339844	946.4578247070314	-484.5639038085935	578.9768676757812	669.1217041015626	-493.6303100585936	521.518310546875	682.5548706054689	-501.9510803222655	523.337646484375	577.3515625000001	-483.4764099121093	586.8212890625	587.5866699218751	-482.0028076171874	416.1084594726562	371.6352539062501	-478.2154846191406	364.7131042480469	401.8653564453126	-473.0467529296874	297.7752075195312	347.802459716797	-455.7633056640624	343.3988037109375	301.8768615722657	-456.4986877441406	142.2906036376953	263.5560302734376	-377.3531188964843	199.4388732910156	106.4407043457032	-465.0056762695312	241.1703033447266	78.81327056884774	-376.7873840332031	
